<svg width="186" height="95" viewBox="0 0 186 95" fill="none" xmlns="http://www.w3.org/2000/svg">
<path d="M73.4051 30.9878C78.713 34.2259 85.206 40.3017 87.8933 45.8432C90.5806 51.3848 91.0981 58.1115 88.4107 63.6531C86.6081 67.3753 83.4367 70.4299 79.6143 72.1157C75.408 73.9685 70.0835 74.0853 66.6283 70.7136C64.8924 69.0111 63.9911 66.5741 64.4584 64.2039C65.1761 60.6152 68.4143 59.113 71.4188 57.8611C73.7723 56.8763 76.2593 55.8081 77.6781 53.7049C79.0969 51.6018 78.6963 48.1801 76.3094 47.2954C76.5097 43.3061 73.4051 39.4003 69.4158 38.6325C69.9165 36.5127 68.5145 32.006 67.6465 32.7237C65.6435 34.3929 64.9425 34.9437 64.2915 37.7312C58.7165 38.0316 53.7425 41.7705 50.9383 46.5276C47.7669 51.8856 47.0325 58.3619 47.1493 64.5044C47.1827 66.0233 47.7669 67.5088 48.9186 68.5103C51.7228 70.8972 55.1279 68.4769 56.5299 65.7395C59.3174 60.3315 57.3144 53.0039 52.1401 49.699C46.8822 46.3607 39.7716 47.3288 34.2468 50.2164C31.9767 51.4015 29.7734 52.9204 27.2363 53.3544C24.4989 53.8385 21.6613 53.0206 18.9239 53.5213C14.6008 54.3058 11.4294 58.5121 11.2125 62.8352C10.9955 67.1583 13.3824 71.3312 16.8041 74.0352C20.2259 76.7392 24.5824 78.0913 28.9388 78.6421C35.2482 79.4266 41.7746 78.592 47.6667 76.2385C51.3389 74.7696 55.4951 72.7166 58.9502 75.0534C60.6694 76.2218 61.6042 78.2248 61.5875 80.2778C61.5541 84.4007 58.4828 87.4886 54.9776 89.2245C52.1735 90.6099 49.2024 92.012 46.1645 92.7798C43.0432 93.5643 39.7716 93.9649 36.5335 93.9983C27.8205 94.0484 26.5853 92.9968 21.7615 91.6448C19.1409 90.9104 16.4703 90.1592 14.2169 88.6737C11.9636 87.1881 8.64196 84.5676 7.03957 82.4311C1.93197 75.6042 1.71498 71.615 1.09739 65.3222C0.479804 59.0295 2.85 52.4364 6.77251 47.4289C10.1943 43.0558 14.8178 39.2334 19.7418 36.6295C25.0831 33.8087 31.1588 32.0727 37.2178 32.2063C39.8551 32.2563 42.726 33.0075 44.0948 35.3276C44.9293 36.7464 44.8626 38.5824 43.7442 39.8009C42.6259 41.0194 40.2557 41.2698 38.887 40.9192C36.5502 40.3184 35.2316 38.766 33.5457 37.0635C30.7916 34.2927 29.2894 30.8876 28.6217 27.299C26.8691 17.7514 30.3576 6.68493 39.2375 2.47867C39.2876 2.44529 39.371 2.4119 39.4879 2.37852C43.2769 0.859592 47.4831 0.592528 51.4557 1.59402C51.7562 1.67748 52.0232 1.74424 52.2402 1.81101C62.9228 5.166 67.6298 13.2447 65.5767 24.7952C65.3931 25.8301 64.3583 28.434 63.9577 29.4188" stroke="white" stroke-width="0.568703" stroke-linecap="round" stroke-linejoin="round"/>
<path d="M70.5508 46.4775C70.7259 46.4775 70.8679 46.3355 70.8679 46.1603C70.8679 45.9852 70.7259 45.8432 70.5508 45.8432C70.3756 45.8432 70.2336 45.9852 70.2336 46.1603C70.2336 46.3355 70.3756 46.4775 70.5508 46.4775Z" fill="white" stroke="white" stroke-width="0.433566" stroke-linecap="round" stroke-linejoin="round"/>
<path d="M34.9979 57.8111C35.2376 57.8111 35.4319 57.6243 35.4319 57.3938C35.4319 57.1633 35.2376 56.9765 34.9979 56.9765C34.7583 56.9765 34.564 57.1633 34.564 57.3938C34.564 57.6243 34.7583 57.8111 34.9979 57.8111Z" fill="white" stroke="white" stroke-width="0.568703" stroke-linecap="round" stroke-linejoin="round"/>
<path d="M15.3519 60.3482C16.2532 60.4317 18.5566 59.1298 18.323 58.2451C17.9724 56.9098 13.2821 56.4257 12.8481 57.7277C12.5644 58.5956 14.4672 60.2481 15.3686 60.3482H15.3519Z" fill="white" stroke="white" stroke-width="0.568703" stroke-linecap="round" stroke-linejoin="round"/>
<path d="M76.66 50.1997C77.0272 50.2331 77.8451 50.0328 77.7616 49.6823C77.6281 49.1482 75.7419 48.9479 75.575 49.482C75.4582 49.8325 76.3094 50.1664 76.66 50.1997Z" fill="white" stroke="white" stroke-width="0.23086" stroke-linecap="round" stroke-linejoin="round"/>
<path d="M12.0637 64.7047C13.6494 63.9536 14.751 62.3011 15.1516 60.4484C14.8345 64.1038 17.3549 67.826 20.9102 68.9443" stroke="white" stroke-width="0.568703" stroke-linecap="round" stroke-linejoin="round"/>
<path d="M69.7329 37.581C69.7329 37.581 72.1031 34.5598 72.9544 35.0105C72.9544 35.0105 73.0211 38.015 72.4703 39.4838" fill="white"/>
<path d="M69.7329 37.581C69.7329 37.581 72.1031 34.5598 72.9544 35.0105C72.9544 35.0105 73.0211 38.015 72.4703 39.4838" stroke="white" stroke-width="0.484242" stroke-linecap="round" stroke-linejoin="round"/>
<path d="M49.8868 48.564L47.7502 55.6245L47.1494 62.9187L48.1508 67.6591L50.5544 69.3617L53.7091 68.9444L56.5467 65.7229L57.8152 60.3482L56.6969 55.1071L54.1765 51.3515L51.2388 49.1649L49.8868 48.564Z" fill="white"/>
<path d="M105.19 60V37.8H106.69V48L106.33 48.57C106.55 47.63 106.97 46.83 107.59 46.17C108.21 45.49 108.93 44.97 109.75 44.61C110.59 44.25 111.43 44.07 112.27 44.07C113.47 44.07 114.46 44.3 115.24 44.76C116.04 45.22 116.63 45.93 117.01 46.89C117.39 47.85 117.58 49.07 117.58 50.55V60H116.08V50.61C116.08 49.45 115.93 48.5 115.63 47.76C115.33 47 114.87 46.44 114.25 46.08C113.65 45.7 112.88 45.51 111.94 45.51C111.2 45.51 110.51 45.65 109.87 45.93C109.23 46.19 108.67 46.55 108.19 47.01C107.73 47.47 107.36 48 107.08 48.6C106.82 49.18 106.69 49.8 106.69 50.46V60H105.94C105.92 60 105.85 60 105.73 60C105.63 60 105.45 60 105.19 60ZM128.129 60.3C126.709 60.3 125.439 59.95 124.319 59.25C123.199 58.55 122.309 57.59 121.649 56.37C121.009 55.15 120.689 53.76 120.689 52.2C120.689 50.62 121.019 49.22 121.679 48C122.359 46.78 123.259 45.82 124.379 45.12C125.499 44.42 126.749 44.07 128.129 44.07C128.929 44.07 129.689 44.19 130.409 44.43C131.129 44.67 131.779 45.01 132.359 45.45C132.939 45.87 133.439 46.37 133.859 46.95C134.279 47.53 134.579 48.16 134.759 48.84L134.159 48.45L134.309 44.4H135.749V60H134.249V56.1L134.759 55.53C134.579 56.19 134.279 56.81 133.859 57.39C133.439 57.97 132.939 58.48 132.359 58.92C131.779 59.36 131.129 59.7 130.409 59.94C129.689 60.18 128.929 60.3 128.129 60.3ZM128.339 58.8C129.479 58.8 130.499 58.52 131.399 57.96C132.319 57.38 133.039 56.6 133.559 55.62C134.099 54.62 134.369 53.47 134.369 52.17C134.369 50.89 134.109 49.76 133.589 48.78C133.069 47.78 132.349 47 131.429 46.44C130.529 45.86 129.499 45.57 128.339 45.57C127.159 45.57 126.109 45.86 125.189 46.44C124.289 47 123.579 47.78 123.059 48.78C122.539 49.76 122.279 50.89 122.279 52.17C122.279 53.43 122.529 54.56 123.029 55.56C123.549 56.56 124.259 57.35 125.159 57.93C126.079 58.51 127.139 58.8 128.339 58.8ZM144.41 60L137.84 44.4H139.58L145.16 58.17L144.53 58.59L150.83 44.4H152.51L145.43 60H144.41ZM161.007 60.3C159.507 60.3 158.167 59.96 156.987 59.28C155.827 58.6 154.917 57.65 154.257 56.43C153.597 55.21 153.267 53.79 153.267 52.17C153.267 50.99 153.447 49.91 153.807 48.93C154.187 47.95 154.707 47.1 155.367 46.38C156.027 45.64 156.817 45.07 157.737 44.67C158.677 44.27 159.697 44.07 160.797 44.07C161.877 44.07 162.847 44.25 163.707 44.61C164.587 44.97 165.327 45.49 165.927 46.17C166.527 46.83 166.977 47.62 167.277 48.54C167.577 49.44 167.707 50.44 167.667 51.54L167.637 52.35H154.377V50.97H166.827L166.167 51.51V50.79C166.167 49.99 165.967 49.19 165.567 48.39C165.187 47.59 164.597 46.92 163.797 46.38C162.997 45.84 161.987 45.57 160.767 45.57C159.627 45.57 158.607 45.82 157.707 46.32C156.827 46.82 156.127 47.55 155.607 48.51C155.107 49.47 154.857 50.66 154.857 52.08C154.857 53.44 155.107 54.63 155.607 55.65C156.107 56.65 156.827 57.43 157.767 57.99C158.727 58.53 159.897 58.8 161.277 58.8C162.017 58.8 162.777 58.68 163.557 58.44C164.337 58.2 165.217 57.68 166.197 56.88L166.977 57.99C166.537 58.41 166.017 58.8 165.417 59.16C164.817 59.5 164.147 59.78 163.407 60C162.667 60.2 161.867 60.3 161.007 60.3ZM170.698 60V44.4H172.138L172.288 47.7H172.108C172.328 47.04 172.728 46.44 173.308 45.9C173.888 45.34 174.578 44.9 175.378 44.58C176.198 44.24 177.058 44.07 177.958 44.07C179.058 44.07 179.988 44.3 180.748 44.76C181.528 45.22 182.108 45.93 182.488 46.89C182.888 47.85 183.088 49.07 183.088 50.55V60H181.588V50.61C181.588 49.45 181.428 48.5 181.108 47.76C180.808 47 180.358 46.44 179.758 46.08C179.158 45.7 178.408 45.51 177.508 45.51C176.728 45.51 176.018 45.65 175.378 45.93C174.738 46.19 174.178 46.55 173.698 47.01C173.218 47.47 172.848 48 172.588 48.6C172.328 49.18 172.198 49.8 172.198 50.46V60H171.448C171.428 60 171.358 60 171.238 60C171.138 60 170.958 60 170.698 60Z" fill="white"/>
</svg>
